<?xml version="1.0" encoding="UTF-8"?>
<svg id="Layer_2" xmlns="http://www.w3.org/2000/svg" viewBox="0 0 874.14 70.46">
  <g id="Layer_1-2" data-name="Layer_1">
    <g>
      <path d="M8.26,20.26v-5.18C8.26,4.99,13.44,0,23.04,0c2.02,0,4.32.38,5.76.67v8.06c-.67-.19-1.73-.38-2.69-.38-4.7,0-7.01,2.21-7.01,7.97v3.94h9.41v8.35h-9.41v40.42h-10.85V28.61H0v-8.35h8.26ZM47.81.67v68.35h-10.94V.67h10.94Z"/>
      <path d="M92.16,10.75h-29.28V3.26h29.28v7.49ZM78.14,18.82c12.86,0,20.06,6.34,20.06,19.1v18.24c0,5.76.48,9.79,1.25,12.86h-9.89c-.48-2.11-.67-4.51-.67-6.82h-.19c-3.55,5.18-9.02,7.87-16.42,7.87-10.18,0-16.51-6.14-16.51-14.5s4.7-13.15,18.72-15.36c3.94-.67,9.7-1.25,13.15-1.44v-1.92c0-7.2-3.94-10.08-9.5-10.08-6.05,0-9.31,3.36-9.6,8.54h-10.75c.48-9.22,7.2-16.51,20.35-16.51ZM87.65,48.29v-2.4c-3.26.19-7.97.67-11.23,1.25-7.01,1.15-9.6,3.26-9.6,7.68s3.07,7.2,8.64,7.2c3.36,0,6.62-1.06,8.83-3.26,2.59-2.69,3.36-5.28,3.36-10.46Z"/>
      <path d="M134.89,19.1c11.04,0,17.76,6.72,17.76,20.06v29.86h-10.94v-28.9c0-8.74-3.74-12.19-9.89-12.19s-11.14,4.7-11.14,14.02v27.07h-10.94V20.26h10.37v6.34h.19c3.07-4.42,8.16-7.49,14.59-7.49Z"/>
      <path d="M182.49,18.82c12.86,0,20.06,6.34,20.06,19.1v18.24c0,5.76.48,9.79,1.25,12.86h-9.89c-.48-2.11-.67-4.51-.67-6.82h-.19c-3.55,5.18-9.02,7.87-16.42,7.87-10.18,0-16.51-6.14-16.51-14.5s4.7-13.15,18.72-15.36c3.94-.67,9.7-1.25,13.15-1.44v-1.92c0-7.2-3.94-10.08-9.5-10.08-6.05,0-9.31,3.36-9.6,8.54h-10.75c.48-9.22,7.2-16.51,20.35-16.51ZM192,48.29v-2.4c-3.26.19-7.97.67-11.23,1.25-7.01,1.15-9.6,3.26-9.6,7.68s3.07,7.2,8.64,7.2c3.36,0,6.62-1.06,8.83-3.26,2.59-2.69,3.36-5.28,3.36-10.46Z"/>
      <path d="M279.26,20.26v-5.18c0-10.08,5.18-15.07,14.78-15.07,2.02,0,4.32.38,5.76.67v8.06c-.67-.19-1.73-.38-2.69-.38-4.7,0-7.01,2.21-7.01,7.97v3.94h9.41v8.35h-9.41v40.42h-10.85V28.61h-8.26v-8.35h8.26ZM318.81.67v68.35h-10.94V.67h10.94Z"/>
      <path d="M363.16,10.75h-29.28V3.26h29.28v7.49ZM349.14,18.82c12.86,0,20.06,6.34,20.06,19.1v18.24c0,5.76.48,9.79,1.25,12.86h-9.89c-.48-2.11-.67-4.51-.67-6.82h-.19c-3.55,5.18-9.02,7.87-16.42,7.87-10.18,0-16.51-6.14-16.51-14.5s4.7-13.15,18.72-15.36c3.94-.67,9.7-1.25,13.15-1.44v-1.92c0-7.2-3.94-10.08-9.5-10.08-6.05,0-9.31,3.36-9.6,8.54h-10.75c.48-9.22,7.2-16.51,20.35-16.51ZM358.65,48.29v-2.4c-3.26.19-7.97.67-11.23,1.25-7.01,1.15-9.6,3.26-9.6,7.68s3.07,7.2,8.64,7.2c3.36,0,6.62-1.06,8.83-3.26,2.59-2.69,3.36-5.28,3.36-10.46Z"/>
      <path d="M405.89,19.1c11.04,0,17.76,6.72,17.76,20.06v29.86h-10.94v-28.9c0-8.74-3.74-12.19-9.89-12.19s-11.14,4.7-11.14,14.02v27.07h-10.94V20.26h10.37v6.34h.19c3.07-4.42,8.16-7.49,14.59-7.49Z"/>
      <path d="M453.49,18.82c12.86,0,20.06,6.34,20.06,19.1v18.24c0,5.76.48,9.79,1.25,12.86h-9.89c-.48-2.11-.67-4.51-.67-6.82h-.19c-3.55,5.18-9.02,7.87-16.42,7.87-10.18,0-16.51-6.14-16.51-14.5s4.7-13.15,18.72-15.36c3.94-.67,9.7-1.25,13.15-1.44v-1.92c0-7.2-3.94-10.08-9.5-10.08-6.05,0-9.31,3.36-9.6,8.54h-10.75c.48-9.22,7.2-16.51,20.35-16.51ZM463,48.29v-2.4c-3.26.19-7.97.67-11.23,1.25-7.01,1.15-9.6,3.26-9.6,7.68s3.07,7.2,8.64,7.2c3.36,0,6.62-1.06,8.83-3.26,2.59-2.69,3.36-5.28,3.36-10.46Z"/>
      <path d="M637.9,26.59h.19c2.78-4.8,8.26-7.58,14.3-7.58,12.38,0,20.26,10.08,20.26,25.63s-7.97,25.54-20.35,25.54c-6.14,0-11.62-2.88-14.5-7.87h-.19v6.72h-10.66V.67h10.94v25.92ZM649.13,27.55c-7.1,0-11.81,6.43-11.81,17.09s4.7,17.09,11.81,17.09,12.1-6.72,12.1-17.09-4.7-17.09-12.1-17.09Z"/>
      <path d="M703.05,18.82c14.78,0,24,9.98,24,25.82s-9.22,25.82-24,25.82-24.1-9.98-24.1-25.82,9.31-25.82,24.1-25.82ZM703.05,27.46c-7.78,0-12.58,6.62-12.58,17.18s4.8,17.18,12.58,17.18,12.58-6.62,12.58-17.18-4.8-17.18-12.58-17.18Z"/>
      <path d="M757.48,18.82c14.78,0,24,9.98,24,25.82s-9.22,25.82-24,25.82-24.1-9.98-24.1-25.82,9.31-25.82,24.1-25.82ZM757.48,27.46c-7.78,0-12.58,6.62-12.58,17.18s4.8,17.18,12.58,17.18,12.58-6.62,12.58-17.18-4.8-17.18-12.58-17.18Z"/>
      <path d="M834.19,69.02h-13.82l-19.01-23.62h-.19v23.62h-10.94V.67h10.94v39.55h.19l17.76-19.97h12.77l-20.16,22.27,22.46,26.5Z"/>
      <path d="M852.82,18.82c12.38,0,19.68,5.76,19.78,16.61h-10.56c0-5.86-3.46-8.64-9.31-8.64-5.09,0-8.06,2.21-8.06,5.76,0,4.22,3.36,5.09,11.04,7.01,8.93,2.3,18.43,4.42,18.43,16.03,0,8.83-7.87,14.88-20.45,14.88s-21.02-5.86-21.12-17.47h11.14c0,5.95,3.65,9.31,10.18,9.31,5.57,0,8.83-2.4,8.83-6.05,0-4.99-3.84-5.95-12.29-8.06-8.16-2.02-16.7-3.84-16.7-14.78,0-8.64,7.68-14.59,19.1-14.59Z"/>
    </g>
  </g>
</svg>